<svg width="350" height="300" viewBox="0 0 350 300" xmlns="http://www.w3.org/2000/svg">
  <defs>
    <linearGradient id="skinGradient3" x1="0%" y1="0%" x2="100%" y2="100%">
      <stop offset="0%" style="stop-color:#FDBCB4;stop-opacity:1" />
      <stop offset="100%" style="stop-color:#F8ADA0;stop-opacity:1" />
    </linearGradient>
    <linearGradient id="hairGradient3" x1="0%" y1="0%" x2="100%" y2="100%">
      <stop offset="0%" style="stop-color:#2C1810;stop-opacity:1" />
      <stop offset="100%" style="stop-color:#4A2C17;stop-opacity:1" />
    </linearGradient>
    <linearGradient id="outfitGradient" x1="0%" y1="0%" x2="100%" y2="100%">
      <stop offset="0%" style="stop-color:#A855F7;stop-opacity:1" />
      <stop offset="100%" style="stop-color:#F472B6;stop-opacity:1" />
    </linearGradient>
    <linearGradient id="skyGradient" x1="0%" y1="0%" x2="100%" y2="100%">
      <stop offset="0%" style="stop-color:#87CEEB;stop-opacity:1" />
      <stop offset="100%" style="stop-color:#E0F6FF;stop-opacity:1" />
    </linearGradient>
  </defs>
  
  <!-- Sky background -->
  <ellipse cx="175" cy="150" rx="160" ry="130" fill="url(#skyGradient)" opacity="0.3"/>
  
  <!-- Clouds -->
  <ellipse cx="80" cy="80" rx="15" ry="8" fill="#FFFFFF" opacity="0.8"/>
  <ellipse cx="85" cy="77" rx="12" ry="6" fill="#FFFFFF" opacity="0.8"/>
  <ellipse cx="90" cy="80" rx="10" ry="5" fill="#FFFFFF" opacity="0.8"/>
  
  <ellipse cx="250" cy="60" rx="18" ry="10" fill="#FFFFFF" opacity="0.8"/>
  <ellipse cx="256" cy="57" rx="15" ry="8" fill="#FFFFFF" opacity="0.8"/>
  <ellipse cx="262" cy="60" rx="12" ry="6" fill="#FFFFFF" opacity="0.8"/>
  
  <!-- Sun -->
  <circle cx="300" cy="50" r="20" fill="#FFD700" opacity="0.8"/>
  <path d="M300 25 L300 35 M300 65 L300 75 M275 50 L285 50 M315 50 L325 50 M282 32 L289 39 M311 61 L318 68 M318 32 L311 39 M289 61 L282 68" stroke="#FFD700" stroke-width="2" opacity="0.6"/>
  
  <!-- Hair -->
  <path d="M140 75 C130 65, 150 55, 175 60 C200 55, 220 60, 230 70 C235 75, 230 90, 225 100 L220 110 C215 115, 210 120, 200 125 L175 130 C165 125, 155 120, 150 110 L145 100 C140 90, 140 85, 140 75 Z" fill="url(#hairGradient3)"/>
  
  <!-- Face -->
  <ellipse cx="175" cy="105" rx="24" ry="30" fill="url(#skinGradient3)"/>
  
  <!-- Eyes (looking up with hope) -->
  <ellipse cx="167" cy="100" rx="3" ry="2" fill="#2C3E50"/>
  <ellipse cx="183" cy="100" rx="3" ry="2" fill="#2C3E50"/>
  <ellipse cx="168" cy="99" rx="1" ry="1" fill="#FFFFFF"/>
  <ellipse cx="184" cy="99" rx="1" ry="1" fill="#FFFFFF"/>
  
  <!-- Eyebrows -->
  <path d="M163 95 Q170 93 173 95" stroke="#2C1810" stroke-width="1.5" fill="none"/>
  <path d="M177 95 Q184 93 187 95" stroke="#2C1810" stroke-width="1.5" fill="none"/>
  
  <!-- Nose -->
  <ellipse cx="175" cy="107" rx="1.5" ry="2" fill="#F8ADA0"/>
  
  <!-- Mouth (peaceful smile) -->
  <path d="M170 115 Q175 118 180 115" stroke="#E74C3C" stroke-width="2" fill="none"/>
  
  <!-- Body -->
  <ellipse cx="175" cy="180" rx="30" ry="40" fill="url(#outfitGradient)"/>
  
  <!-- Arms (relaxed) -->
  <ellipse cx="145" cy="165" rx="10" ry="20" fill="url(#outfitGradient)" transform="rotate(-10 145 165)"/>
  <ellipse cx="205" cy="165" rx="10" ry="20" fill="url(#outfitGradient)" transform="rotate(10 205 165)"/>
  
  <!-- Hands -->
  <circle cx="140" cy="185" r="7" fill="url(#skinGradient3)"/>
  <circle cx="210" cy="185" r="7" fill="url(#skinGradient3)"/>
  
  <!-- Child figure (representing family time) -->
  <ellipse cx="120" cy="220" rx="8" ry="10" fill="url(#skinGradient3)"/>
  <ellipse cx="120" cy="235" rx="10" ry="12" fill="#FFB6C1"/>
  <circle cx="120" cy="216" r="5" fill="url(#skinGradient3)"/>
  <ellipse cx="118" cy="215" rx="1" ry="1" fill="#2C3E50"/>
  <ellipse cx="122" cy="215" rx="1" ry="1" fill="#2C3E50"/>
  <path d="M118 218 Q120 220 122 218" stroke="#E74C3C" stroke-width="1" fill="none"/>
  
  <!-- Book (representing learning) -->
  <rect x="225" y="200" width="20" height="15" fill="#8B4513"/>
  <rect x="227" y="202" width="16" height="11" fill="#F5F5DC"/>
  <line x1="235" y1="202" x2="235" y2="213" stroke="#8B4513" stroke-width="1"/>
  
  <!-- Clock showing flexible time -->
  <circle cx="260" cy="160" r="12" fill="#FFFFFF" stroke="#2C3E50" stroke-width="2"/>
  <line x1="260" y1="160" x2="260" y2="152" stroke="#2C3E50" stroke-width="2"/>
  <line x1="260" y1="160" x2="266" y2="160" stroke="#2C3E50" stroke-width="1"/>
  <text x="260" y="180" font-family="Arial, sans-serif" font-size="8" fill="#2C3E50" text-anchor="middle">Meu tempo</text>
  
  <!-- Hearts floating around -->
  <path d="M50 120 C50 115, 55 115, 55 120 C55 115, 60 115, 60 120 C60 125, 55 130, 55 135 C55 130, 50 125, 50 120 Z" fill="#FF69B4" opacity="0.7"/>
  <path d="M280 180 C280 175, 285 175, 285 180 C285 175, 290 175, 290 180 C290 185, 285 190, 285 195 C285 190, 280 185, 280 180 Z" fill="#FF69B4" opacity="0.7"/>
  
  <!-- Freedom birds -->
  <path d="M100 100 Q105 98 110 100 Q105 102 100 100" fill="#696969" opacity="0.6"/>
  <path d="M300 120 Q305 118 310 120 Q305 122 300 120" fill="#696969" opacity="0.6"/>
  <path d="M320 140 Q325 138 330 140 Q325 142 320 140" fill="#696969" opacity="0.6"/>
  
  <!-- Sparkles -->
  <path d="M70 160 L72 165 L77 165 L73 168 L75 173 L70 170 L65 173 L67 168 L63 165 L68 165 Z" fill="#FFD700" opacity="0.8"/>
  <path d="M290 220 L292 225 L297 225 L293 228 L295 233 L290 230 L285 233 L287 228 L283 225 L288 225 Z" fill="#FFD700" opacity="0.8"/>
</svg>